HIERARCHY
ROOT joint_0
{
	OFFSET 0.000000 0.000000 0.000000
	CHANNELS 6 Xposition Yposition Zposition Zrotation Yrotation Xrotation 
	JOINT joint_1
	{
		OFFSET 14.113007 -2.961990 123.953979
		CHANNELS 3 Zrotation Yrotation Xrotation
		JOINT joint_2
		{
			OFFSET 0.764000 -2.434006 113.871948
			CHANNELS 3 Zrotation Yrotation Xrotation
			JOINT joint_3
			{
				OFFSET 0.186996 -2.169998 113.753052
				CHANNELS 3 Zrotation Yrotation Xrotation
				JOINT joint_4
				{
					OFFSET 16.096001 -2.720001 160.853027
					CHANNELS 3 Zrotation Yrotation Xrotation
					JOINT joint_5
					{
						OFFSET 34.392006 -0.188995 92.567017
						CHANNELS 3 Zrotation Yrotation Xrotation
						End Site
						{
							OFFSET 0.000000 0.000000 0.000000
						}
					}
				}
				JOINT joint_6
				{
					OFFSET 9.183998 -36.684006 89.597046
					CHANNELS 3 Zrotation Yrotation Xrotation
					JOINT joint_7
					{
						OFFSET 0.486000 -164.365997 -28.984009
						CHANNELS 3 Zrotation Yrotation Xrotation
						JOINT joint_8
						{
							OFFSET 38.899002 -34.967010 -291.651978
							CHANNELS 3 Zrotation Yrotation Xrotation
							JOINT joint_9
							{
								OFFSET 41.714005 -45.890991 -258.857056
								CHANNELS 3 Zrotation Yrotation Xrotation
								End Site
								{
									OFFSET 0.000000 0.000000 0.000000
								}
							}
						}
					}
				}
				JOINT joint_10
				{
					OFFSET 8.867004 33.650002 90.817993
					CHANNELS 3 Zrotation Yrotation Xrotation
					JOINT joint_11
					{
						OFFSET 0.018997 164.299999 -29.368042
						CHANNELS 3 Zrotation Yrotation Xrotation
						JOINT joint_12
						{
							OFFSET 29.440994 30.887997 -293.216919
							CHANNELS 3 Zrotation Yrotation Xrotation
							JOINT joint_13
							{
								OFFSET 46.174011 54.490005 -256.422058
								CHANNELS 3 Zrotation Yrotation Xrotation
								End Site
								{
									OFFSET 0.000000 0.000000 0.000000
								}
							}
						}
					}
				}
			}
		}
	}
	JOINT joint_14
	{
		OFFSET -2.264000 -89.466995 -116.150024
		CHANNELS 3 Zrotation Yrotation Xrotation
		JOINT joint_15
		{
			OFFSET -16.400993 -17.452988 -493.781982
			CHANNELS 3 Zrotation Yrotation Xrotation
			JOINT joint_16
			{
				OFFSET -50.497004 -13.404022 -424.754013
				CHANNELS 3 Zrotation Yrotation Xrotation
				JOINT joint_17
				{
					OFFSET 198.546007 -19.341003 -89.309000
					CHANNELS 3 Zrotation Yrotation Xrotation
					End Site
					{
						OFFSET 0.000000 0.000000 0.000000
					}
				}
			}
		}
	}
	JOINT joint_18
	{
		OFFSET -0.867996 96.016006 -110.817993
		CHANNELS 3 Zrotation Yrotation Xrotation
		JOINT joint_19
		{
			OFFSET -10.130997 24.658998 -493.645020
			CHANNELS 3 Zrotation Yrotation Xrotation
			JOINT joint_20
			{
				OFFSET -48.871004 19.434999 -424.714005
				CHANNELS 3 Zrotation Yrotation Xrotation
				JOINT joint_21
				{
					OFFSET 195.579996 24.926001 -94.327003
					CHANNELS 3 Zrotation Yrotation Xrotation
					End Site
					{
						OFFSET 0.000000 0.000000 0.000000
					}
				}
			}
		}
	}
}
MOTION
Frames: 12
Frame Time: 0.016667
55.385000 -178.183000 1137.874020 -3.150162 -4.444677 -1.375688 -0.328049 1.137007 1.351092 -0.340302 -0.156737 -0.309547 -0.332635 0.242158 0.195260 -0.379261 0.328963 1.018725 0.000000 0.000000 0.000000 0.403202 3.085907 0.543118 -0.242279 3.197057 0.491849 0.447065 1.330986 4.135849 0.000000 0.000000 0.000000 -0.962897 0.511719 0.173174 0.287052 0.734435 0.138439 -0.082515 6.971834 -10.176457 0.000000 0.000000 0.000000 -0.885911 3.716508 -3.461521 -0.896943 0.627275 -0.037669 -0.703510 -3.377897 -0.640646 0.000000 0.000000 0.000000 -1.646015 2.011210 5.396499 -1.695222 0.048247 0.667354 -1.651028 -2.028117 -0.532373 0.000000 0.000000 0.000000 
56.019000 -178.391010 1137.863040 -3.169556 -4.324238 -1.371694 -0.320364 1.137699 1.366868 -0.332401 -0.156730 -0.310656 -0.324793 0.240199 0.197236 -0.379224 0.252938 1.019008 0.000000 0.000000 0.000000 0.410737 3.115072 0.505056 -0.235446 3.226931 0.527722 0.456189 1.315634 4.175421 0.000000 0.000000 0.000000 -0.952218 0.544311 0.174860 0.283513 0.764568 0.134619 -0.096887 6.940546 -10.228911 0.000000 0.000000 0.000000 -0.878988 3.629028 -3.451973 -0.892221 0.602055 -0.038957 -0.699693 -3.380867 -0.639264 0.000000 0.000000 0.000000 -1.641161 1.933231 5.411234 -1.687427 0.015302 0.659398 -1.642657 -2.020629 -0.529388 0.000000 0.000000 0.000000 
56.944000 -178.669010 1137.817020 -3.209836 -4.199218 -1.368461 -0.310491 1.139249 1.382677 -0.322315 -0.156561 -0.311735 -0.314762 0.238770 0.198965 -0.378842 0.193299 1.018382 0.000000 0.000000 0.000000 0.430829 3.150186 0.468967 -0.229436 3.265171 0.574863 0.458574 1.322167 4.198230 0.000000 0.000000 0.000000 -0.941191 0.589827 0.183995 0.283549 0.808169 0.126034 -0.106218 6.921559 -10.272160 0.000000 0.000000 0.000000 -0.865289 3.536837 -3.440642 -0.881890 0.602790 -0.038064 -0.689248 -3.391559 -0.635697 0.000000 0.000000 0.000000 -1.628679 1.873028 5.440833 -1.672799 -0.022370 0.632361 -1.630195 -2.020815 -0.523487 0.000000 0.000000 0.000000 
58.170000 -179.054000 1137.739990 -3.270605 -4.059677 -1.365691 -0.293467 1.134859 1.391022 -0.304985 -0.155959 -0.308537 -0.297431 0.240082 0.197577 -0.378896 0.143972 1.018958 0.000000 0.000000 0.000000 0.455806 3.195136 0.443312 -0.224708 3.314406 0.633398 0.452660 1.353844 4.198847 0.000000 0.000000 0.000000 -0.940543 0.649477 0.208564 0.286609 0.868269 0.111269 -0.111687 6.911618 -10.307754 0.000000 0.000000 0.000000 -0.844279 3.430342 -3.425172 -0.865513 0.628886 -0.036801 -0.671862 -3.413191 -0.630117 0.000000 0.000000 0.000000 -1.610417 1.824873 5.496281 -1.652889 -0.073019 0.568276 -1.616916 -2.030854 -0.515961 0.000000 0.000000 0.000000 
59.686000 -179.509000 1137.629030 -3.352967 -3.915237 -1.363578 -0.274284 1.131174 1.397939 -0.285524 -0.155594 -0.303482 -0.277935 0.242692 0.194919 -0.378780 0.111007 1.019091 0.000000 0.000000 0.000000 0.494393 3.245664 0.421456 -0.220844 3.371834 0.701556 0.439970 1.407419 4.182630 0.000000 0.000000 0.000000 -0.938505 0.721986 0.239569 0.293281 0.941595 0.092970 -0.112213 6.913508 -10.334180 0.000000 0.000000 0.000000 -0.816431 3.318465 -3.408146 -0.843491 0.681033 -0.033516 -0.647850 -3.442260 -0.622320 0.000000 0.000000 0.000000 -1.584138 1.794448 5.566138 -1.625806 -0.128902 0.485237 -1.599143 -2.047522 -0.505454 0.000000 0.000000 0.000000 
61.607000 -179.973010 1137.454960 -3.474746 -3.806093 -1.364950 -0.267287 1.144768 1.423526 -0.278615 -0.160246 -0.308007 -0.270822 0.249441 0.199357 -0.376009 0.138546 1.012073 0.000000 0.000000 0.000000 0.585515 3.288616 0.390675 -0.218427 3.431192 0.781361 0.416813 1.493020 4.137512 0.000000 0.000000 0.000000 -0.904611 0.807944 0.254178 0.309636 1.024330 0.073588 -0.096225 6.956956 -10.328732 0.000000 0.000000 0.000000 -0.777890 3.232992 -3.395767 -0.812534 0.787562 -0.019591 -0.612641 -3.470868 -0.609506 0.000000 0.000000 0.000000 -1.537537 1.819621 5.630767 -1.580623 -0.160462 0.417810 -1.563822 -2.070164 -0.485798 0.000000 0.000000 0.000000 
63.910000 -180.371990 1137.189940 -3.650684 -3.745696 -1.373563 -0.282269 1.187645 1.487842 -0.294222 -0.170846 -0.328482 -0.285948 0.266019 0.213628 -0.367379 0.259376 0.989403 0.000000 0.000000 0.000000 0.786866 3.311784 0.346040 -0.219429 3.490743 0.871333 0.376816 1.625511 4.041823 0.000000 0.000000 0.000000 -0.810054 0.904145 0.243742 0.337975 1.108517 0.044771 -0.056394 7.060378 -10.276258 0.000000 0.000000 0.000000 -0.724049 3.180473 -3.392045 -0.768605 0.956080 0.012663 -0.561445 -3.496417 -0.589285 0.000000 0.000000 0.000000 -1.463020 1.915679 5.684265 -1.510869 -0.167095 0.378355 -1.503359 -2.097758 -0.453474 0.000000 0.000000 0.000000 
66.618000 -180.779010 1136.860960 -3.866162 -3.720420 -1.385504 -0.309557 1.247507 1.571061 -0.322540 -0.186230 -0.358646 -0.313592 0.288596 0.233865 -0.355599 0.438563 0.958495 0.000000 0.000000 0.000000 1.041542 3.326581 0.293342 -0.221924 3.551527 0.971969 0.326281 1.790071 3.917007 0.000000 0.000000 0.000000 -0.683085 1.012946 0.217217 0.376119 1.201185 0.014518 0.000166 7.205813 -10.192779 0.000000 0.000000 0.000000 -0.659408 3.153987 -3.393249 -0.715646 1.178896 0.055193 -0.499206 -3.520536 -0.564015 0.000000 0.000000 0.000000 -1.368290 2.067367 5.731936 -1.423248 -0.150202 0.354459 -1.425422 -2.129421 -0.412255 0.000000 0.000000 0.000000 
69.919000 -181.348010 1136.525020 -4.095013 -3.726599 -1.391179 -0.333175 1.292157 1.631196 -0.347033 -0.195823 -0.382716 -0.337723 0.301233 0.251336 -0.346637 0.628454 0.935366 0.000000 0.000000 0.000000 1.213241 3.357382 0.239254 -0.221123 3.613054 1.085253 0.280913 1.948435 3.813985 0.000000 0.000000 0.000000 -0.584009 1.143530 0.178678 0.423210 1.322148 0.010902 0.062462 7.365676 -10.104373 0.000000 0.000000 0.000000 -0.594861 3.161248 -3.394671 -0.663637 1.462492 0.092285 -0.437430 -3.539045 -0.538407 0.000000 0.000000 0.000000 -1.263702 2.263891 5.769819 -1.326210 -0.084256 0.343406 -1.339454 -2.164985 -0.366681 0.000000 0.000000 0.000000 
73.823000 -182.085010 1136.118040 -4.336689 -3.784666 -1.382438 -0.349416 1.314433 1.654879 -0.363750 -0.193204 -0.397573 -0.354662 0.296118 0.262374 -0.343131 0.854116 0.927239 0.000000 0.000000 0.000000 1.267115 3.405468 0.185850 -0.216795 3.670390 1.212959 0.240707 2.104410 3.735935 0.000000 0.000000 0.000000 -0.544364 1.300831 0.135656 0.481505 1.482372 0.034896 0.131327 7.543493 -10.018126 0.000000 0.000000 0.000000 -0.529900 3.210162 -3.406081 -0.613029 1.835670 0.118038 -0.376893 -3.549151 -0.512528 0.000000 0.000000 0.000000 -1.148598 2.520389 5.787807 -1.219423 0.044274 0.350283 -1.244958 -2.199839 -0.317076 0.000000 0.000000 0.000000 
78.320000 -182.983990 1135.703980 -4.591408 -3.874129 -1.366829 -0.362680 1.320234 1.657224 -0.377155 -0.182948 -0.407054 -0.368640 0.280602 0.269610 -0.342612 1.089500 0.927527 0.000000 0.000000 0.000000 1.239322 3.469445 0.129237 -0.209166 3.728625 1.353880 0.205611 2.254297 3.679517 0.000000 0.000000 0.000000 -0.530830 1.479737 0.080272 0.549019 1.670461 0.085421 0.206247 7.736437 -9.927957 0.000000 0.000000 0.000000 -0.464753 3.293360 -3.417969 -0.563069 2.267969 0.136877 -0.317523 -3.547726 -0.486042 0.000000 0.000000 0.000000 -1.023767 2.821711 5.795885 -1.103529 0.220916 0.369370 -1.142590 -2.232714 -0.263906 0.000000 0.000000 0.000000 
83.570000 -184.169010 1135.534060 -4.837204 -3.929639 -1.360136 -0.369790 1.296296 1.646003 -0.383900 -0.172605 -0.409307 -0.375970 0.263690 0.271656 -0.344010 1.202696 0.932577 0.000000 0.000000 0.000000 1.108530 3.568821 0.068464 -0.194233 3.803038 1.504680 0.190615 2.349291 3.683179 0.000000 0.000000 0.000000 -0.500701 1.673960 -0.006564 0.618621 1.871265 0.189413 0.274663 7.911188 -9.840523 0.000000 0.000000 0.000000 -0.411602 3.394295 -3.397806 -0.522364 2.677923 0.152807 -0.269122 -3.531541 -0.462998 0.000000 0.000000 0.000000 -0.901776 3.113282 5.820318 -0.988636 0.426714 0.383837 -1.043190 -2.265445 -0.212143 0.000000 0.000000 0.000000 
